<svg width="198" height="55" fill="none" xmlns="http://www.w3.org/2000/svg"><path d="M197 40.586L183.586 54H1V14.414L14.414 1H197v39.586z" stroke="#fff" stroke-width="2"/><path d="M23.764 34V21.4h7.938v1.872h-5.994v8.856h5.994V34h-7.938zm.882-5.526v-1.872h6.066v1.872h-6.066zM34.353 34v-9.45h1.854v1.944l-.324.216c.12-.42.354-.804.702-1.152.348-.36.762-.648 1.242-.864.48-.228.972-.342 1.476-.342.72 0 1.32.144 1.8.432.48.276.84.702 1.08 1.278.24.576.36 1.302.36 2.178V34h-1.854v-5.634c0-.54-.072-.984-.216-1.332-.144-.36-.366-.618-.666-.774-.3-.168-.672-.24-1.116-.216-.36 0-.69.06-.99.18-.3.108-.564.264-.792.468-.216.204-.39.444-.522.72-.12.264-.18.552-.18.864V34h-1.854zm11.875 0V22.138h1.854V34h-1.854zm-1.962-7.65v-1.8h6.012v1.8h-6.012zm7.7 7.65v-9.45h1.872v2.97l-.18-.72c.132-.456.354-.87.666-1.242.324-.372.69-.666 1.098-.882.42-.216.852-.324 1.296-.324.204 0 .396.018.576.054.192.036.342.078.45.126l-.486 2.016a2.579 2.579 0 0 0-.486-.144 1.827 1.827 0 0 0-.504-.072 2.3 2.3 0 0 0-.936.198c-.288.12-.546.294-.774.522-.216.216-.39.474-.522.774a2.262 2.262 0 0 0-.198.954V34h-1.872zm11.265.18c-.972 0-1.836-.204-2.592-.612a4.732 4.732 0 0 1-1.764-1.71c-.42-.72-.63-1.548-.63-2.484 0-.744.12-1.422.36-2.034.24-.612.57-1.14.99-1.584a4.344 4.344 0 0 1 1.53-1.044 4.969 4.969 0 0 1 1.944-.378c.612 0 1.182.12 1.71.36.528.228.984.546 1.368.954.396.408.696.894.9 1.458.216.552.318 1.158.306 1.818l-.018.792h-7.722L59.2 28.24h6.534l-.27.306v-.432a2.086 2.086 0 0 0-.396-1.062 2.447 2.447 0 0 0-1.998-1.008c-.648 0-1.194.126-1.638.378-.444.24-.78.6-1.008 1.08-.228.468-.342 1.05-.342 1.746 0 .66.138 1.236.414 1.728.276.48.666.852 1.17 1.116.504.264 1.086.396 1.746.396.468 0 .9-.078 1.296-.234.408-.156.846-.438 1.314-.846l.936 1.314c-.288.288-.642.54-1.062.756-.408.216-.846.39-1.314.522a5.29 5.29 0 0 1-1.35.18zm15.592 0c-.972 0-1.836-.204-2.592-.612a4.732 4.732 0 0 1-1.764-1.71c-.42-.72-.63-1.548-.63-2.484 0-.744.12-1.422.36-2.034.24-.612.57-1.14.99-1.584a4.344 4.344 0 0 1 1.53-1.044 4.969 4.969 0 0 1 1.944-.378c.612 0 1.182.12 1.71.36.528.228.984.546 1.368.954.396.408.696.894.9 1.458.216.552.318 1.158.306 1.818l-.018.792h-7.722l-.414-1.476h6.534l-.27.306v-.432a2.086 2.086 0 0 0-.396-1.062 2.447 2.447 0 0 0-1.998-1.008c-.648 0-1.194.126-1.638.378-.444.24-.78.6-1.008 1.08-.228.468-.342 1.05-.342 1.746 0 .66.138 1.236.414 1.728.276.48.666.852 1.17 1.116.504.264 1.086.396 1.746.396.468 0 .9-.078 1.296-.234.408-.156.846-.438 1.314-.846l.936 1.314c-.288.288-.642.54-1.062.756-.408.216-.846.39-1.314.522a5.29 5.29 0 0 1-1.35.18zm6.101-.18v-9.45h1.872v2.016l-.342.216c.096-.312.246-.612.45-.9.216-.288.474-.54.774-.756.312-.228.642-.408.99-.54.36-.132.726-.198 1.098-.198.54 0 1.014.09 1.422.27.408.18.744.45 1.008.81.264.36.456.81.576 1.35l-.288-.072.126-.306c.132-.276.312-.534.54-.774.24-.252.51-.474.81-.666.3-.192.618-.342.954-.45.336-.108.666-.162.99-.162.708 0 1.29.144 1.746.432.468.288.816.726 1.044 1.314.24.588.36 1.32.36 2.196V34h-1.872v-5.562c0-.54-.072-.978-.216-1.314-.132-.348-.336-.606-.612-.774-.276-.168-.63-.252-1.062-.252-.336 0-.654.06-.954.18-.288.108-.54.264-.756.468a2.17 2.17 0 0 0-.504.72c-.12.264-.18.558-.18.882V34h-1.872v-5.598c0-.492-.072-.906-.216-1.242a1.68 1.68 0 0 0-.63-.792c-.276-.18-.612-.27-1.008-.27-.336 0-.648.06-.936.18-.288.108-.54.264-.756.468a1.984 1.984 0 0 0-.504.702c-.12.264-.18.552-.18.864V34h-1.872zm27.237.18c-.876 0-1.68-.156-2.412-.468a5.591 5.591 0 0 1-1.908-1.332 6.35 6.35 0 0 1-1.26-2.07c-.288-.792-.432-1.662-.432-2.61 0-.9.156-1.734.468-2.502a6.58 6.58 0 0 1 1.332-2.052 6.028 6.028 0 0 1 1.962-1.368 5.975 5.975 0 0 1 2.412-.486c.612 0 1.206.096 1.782.288.588.18 1.116.438 1.584.774.48.324.87.696 1.17 1.116l-1.296 1.35a6.218 6.218 0 0 0-1.062-.864 4.137 4.137 0 0 0-1.08-.54c-.36-.12-.726-.18-1.098-.18-.588 0-1.14.114-1.656.342a4.073 4.073 0 0 0-1.332.918c-.372.396-.666.87-.882 1.422a4.757 4.757 0 0 0-.324 1.782c0 .684.102 1.308.306 1.872a4.23 4.23 0 0 0 .9 1.422c.384.396.84.702 1.368.918.54.204 1.134.306 1.782.306a4.33 4.33 0 0 0 2.25-.63 4.86 4.86 0 0 0 .918-.72l.972 1.584c-.276.324-.654.618-1.134.882a6.715 6.715 0 0 1-1.584.63 7.173 7.173 0 0 1-1.746.216zm10.885 0c-.924 0-1.752-.21-2.484-.63a4.772 4.772 0 0 1-1.71-1.746c-.42-.744-.63-1.59-.63-2.538 0-.948.21-1.788.63-2.52.42-.744.99-1.326 1.71-1.746.732-.432 1.56-.648 2.484-.648.912 0 1.728.216 2.448.648a4.558 4.558 0 0 1 1.728 1.746c.42.732.63 1.572.63 2.52s-.21 1.794-.63 2.538a4.729 4.729 0 0 1-1.728 1.746c-.72.42-1.536.63-2.448.63zm0-1.692c.564 0 1.068-.138 1.512-.414a3.022 3.022 0 0 0 1.044-1.152 3.428 3.428 0 0 0 .36-1.656c.012-.624-.108-1.176-.36-1.656a2.857 2.857 0 0 0-1.044-1.152 2.805 2.805 0 0 0-1.512-.414c-.564 0-1.074.144-1.53.432-.444.276-.792.66-1.044 1.152-.252.48-.372 1.026-.36 1.638a3.428 3.428 0 0 0 .36 1.656c.252.48.6.864 1.044 1.152.456.276.966.414 1.53.414zM129.872 34v-9.45h1.854v1.944l-.324.216c.12-.42.354-.804.702-1.152.348-.36.762-.648 1.242-.864.48-.228.972-.342 1.476-.342.72 0 1.32.144 1.8.432.48.276.84.702 1.08 1.278.24.576.36 1.302.36 2.178V34h-1.854v-5.634c0-.54-.072-.984-.216-1.332-.144-.36-.366-.618-.666-.774-.3-.168-.672-.24-1.116-.216-.36 0-.69.06-.99.18-.3.108-.564.264-.792.468-.216.204-.39.444-.522.72-.12.264-.18.552-.18.864V34h-1.854zm11.875 0V22.138h1.854V34h-1.854zm-1.962-7.65v-1.8h6.012v1.8h-6.012zm11.249 7.83a3.78 3.78 0 0 1-2.142-.648c-.636-.432-1.146-1.02-1.53-1.764-.384-.744-.576-1.584-.576-2.52 0-.948.192-1.788.576-2.52.396-.744.924-1.326 1.584-1.746a4.159 4.159 0 0 1 2.25-.63c.492 0 .942.072 1.35.216a3.2 3.2 0 0 1 1.062.612c.312.252.564.546.756.882.204.336.33.696.378 1.08l-.414-.144V24.55h1.872V34h-1.872v-2.25l.432-.126a2.56 2.56 0 0 1-.45.954c-.216.3-.498.57-.846.81-.336.24-.714.432-1.134.576-.408.144-.84.216-1.296.216zm.486-1.71c.564 0 1.062-.138 1.494-.414a2.802 2.802 0 0 0 1.008-1.134c.252-.492.378-1.05.378-1.674 0-.612-.126-1.158-.378-1.638a2.802 2.802 0 0 0-1.008-1.134c-.432-.276-.93-.414-1.494-.414-.552 0-1.044.138-1.476.414-.42.276-.756.654-1.008 1.134-.24.48-.36 1.026-.36 1.638 0 .624.12 1.182.36 1.674.252.48.588.858 1.008 1.134.432.276.924.414 1.476.414zm8.438 1.53V22.138h1.854V34h-1.854zm-1.962-7.65v-1.8h6.012v1.8h-6.012zm11.861 7.83c-.924 0-1.752-.21-2.484-.63a4.772 4.772 0 0 1-1.71-1.746c-.42-.744-.63-1.59-.63-2.538 0-.948.21-1.788.63-2.52.42-.744.99-1.326 1.71-1.746.732-.432 1.56-.648 2.484-.648.912 0 1.728.216 2.448.648a4.558 4.558 0 0 1 1.728 1.746c.42.732.63 1.572.63 2.52s-.21 1.794-.63 2.538a4.729 4.729 0 0 1-1.728 1.746c-.72.42-1.536.63-2.448.63zm0-1.692c.564 0 1.068-.138 1.512-.414a3.022 3.022 0 0 0 1.044-1.152 3.428 3.428 0 0 0 .36-1.656c.012-.624-.108-1.176-.36-1.656a2.857 2.857 0 0 0-1.044-1.152 2.805 2.805 0 0 0-1.512-.414c-.564 0-1.074.144-1.53.432-.444.276-.792.66-1.044 1.152-.252.48-.372 1.026-.36 1.638a3.428 3.428 0 0 0 .36 1.656c.252.48.6.864 1.044 1.152.456.276.966.414 1.53.414z" fill="#fff"/></svg>