<svg width="253" height="70" fill="none" xmlns="http://www.w3.org/2000/svg"><path d="M238.782 51.694l-16.274 17.088H1.218V18.305L17.492 1.218h221.29v50.477z" stroke="#fff" stroke-width="2.436"/><path d="M20.333 43c-.833 0-1.608-.11-2.324-.328a6.349 6.349 0 0 1-1.93-.987 7.656 7.656 0 0 1-1.534-1.667l1.622-1.863c.716 1.023 1.404 1.732 2.061 2.127.658.394 1.44.592 2.347.592a4.15 4.15 0 0 0 1.513-.264c.453-.175.81-.416 1.074-.723.263-.307.395-.658.395-1.053 0-.263-.044-.511-.132-.745a1.778 1.778 0 0 0-.416-.636 2.748 2.748 0 0 0-.702-.526 4.771 4.771 0 0 0-.987-.417 8.635 8.635 0 0 0-1.316-.329c-.789-.16-1.476-.373-2.06-.636a4.886 4.886 0 0 1-1.47-.986 3.795 3.795 0 0 1-.877-1.338 4.883 4.883 0 0 1-.285-1.71c0-.614.132-1.184.395-1.71.277-.527.65-.98 1.118-1.36a5.055 5.055 0 0 1 1.688-.9 6.414 6.414 0 0 1 2.083-.328c.79 0 1.514.102 2.171.307a5.295 5.295 0 0 1 1.755.92c.511.395.935.885 1.271 1.47l-1.666 1.645a5.13 5.13 0 0 0-.987-1.206 3.606 3.606 0 0 0-1.206-.746 3.741 3.741 0 0 0-1.403-.263c-.57 0-1.067.087-1.491.263-.424.175-.76.424-1.009.745a1.76 1.76 0 0 0-.35 1.097c0 .307.058.592.175.855.117.248.292.475.526.68.248.19.577.365.987.526.409.146.899.278 1.469.395.804.175 1.52.402 2.149.68a6.256 6.256 0 0 1 1.6.942 3.7 3.7 0 0 1 .987 1.228c.234.453.35.943.35 1.47 0 .979-.226 1.827-.679 2.543-.453.716-1.096 1.272-1.93 1.666-.833.38-1.827.57-2.982.57zm13.552 0c-1.126 0-2.134-.255-3.026-.767a5.815 5.815 0 0 1-2.083-2.127c-.512-.906-.767-1.937-.767-3.092s.255-2.178.767-3.07a5.6 5.6 0 0 1 2.083-2.126c.892-.527 1.9-.79 3.026-.79 1.111 0 2.105.263 2.982.79a5.551 5.551 0 0 1 2.105 2.127c.512.891.768 1.914.768 3.07 0 1.154-.256 2.185-.768 3.091a5.761 5.761 0 0 1-2.105 2.127c-.877.512-1.871.768-2.982.768zm0-2.06a3.42 3.42 0 0 0 1.842-.505 3.68 3.68 0 0 0 1.272-1.403c.307-.6.453-1.272.438-2.018.015-.76-.131-1.432-.438-2.017a3.48 3.48 0 0 0-1.272-1.403c-.541-.337-1.155-.505-1.842-.505s-1.308.176-1.864.527c-.54.336-.965.804-1.272 1.403-.307.585-.453 1.25-.438 1.995-.015.746.131 1.418.438 2.018a3.68 3.68 0 0 0 1.272 1.403 3.529 3.529 0 0 0 1.864.504zm8.36 1.841V26.555h2.258v16.226h-2.259zm5.832 0V31.27h2.258v11.512h-2.258zm1.096-14.055c-.483 0-.855-.124-1.118-.373-.264-.248-.395-.6-.395-1.052 0-.424.132-.768.395-1.031.277-.263.65-.395 1.118-.395.482 0 .855.125 1.118.373.263.249.395.6.395 1.053 0 .424-.139.767-.417 1.03-.263.263-.628.395-1.096.395zM58.696 43c-1.067 0-2.024-.264-2.872-.79a5.77 5.77 0 0 1-1.995-2.149c-.483-.906-.724-1.922-.724-3.048 0-1.125.241-2.141.724-3.047a5.77 5.77 0 0 1 1.995-2.15c.848-.526 1.805-.789 2.872-.789 1.024 0 1.952.212 2.785.636.848.41 1.491.972 1.93 1.688l-1.25 1.535a4.113 4.113 0 0 0-.9-.92 4.84 4.84 0 0 0-1.161-.658 3.232 3.232 0 0 0-1.184-.241c-.702 0-1.33.175-1.886.526a3.641 3.641 0 0 0-1.294 1.403c-.321.6-.482 1.272-.482 2.017 0 .746.168 1.418.504 2.018a3.973 3.973 0 0 0 1.338 1.403 3.38 3.38 0 0 0 1.842.526 3.34 3.34 0 0 0 1.14-.197 4.03 4.03 0 0 0 1.096-.592c.351-.263.68-.585.987-.965l1.25 1.535c-.468.658-1.14 1.199-2.018 1.623a6.04 6.04 0 0 1-2.697.636zm7.218-.22V31.27h2.258v11.512h-2.258zm1.096-14.055c-.482 0-.855-.124-1.118-.373-.263-.248-.395-.6-.395-1.052 0-.424.132-.768.395-1.031.278-.263.65-.395 1.118-.395.483 0 .855.125 1.118.373.264.249.395.6.395 1.053 0 .424-.139.767-.416 1.03-.263.263-.629.395-1.097.395zm6.06 14.055V28.33h2.258v14.45h-2.259zm-2.39-9.319V31.27h7.323v2.193h-7.324zM84.381 43a4.61 4.61 0 0 1-2.61-.789c-.775-.526-1.396-1.242-1.864-2.149-.467-.906-.701-1.93-.701-3.07 0-1.154.234-2.178.701-3.07.483-.906 1.126-1.615 1.93-2.126.819-.512 1.732-.768 2.74-.768.6 0 1.148.088 1.645.263a3.89 3.89 0 0 1 1.294.746c.38.307.687.665.921 1.074.249.41.402.848.46 1.316l-.504-.175v-2.983h2.28v11.512h-2.28v-2.74l.526-.154a3.12 3.12 0 0 1-.548 1.162 4.165 4.165 0 0 1-1.03.987c-.41.292-.87.526-1.382.701a4.71 4.71 0 0 1-1.578.264zm.592-2.083c.687 0 1.293-.168 1.82-.504a3.412 3.412 0 0 0 1.228-1.381c.306-.6.46-1.28.46-2.04 0-.745-.153-1.41-.46-1.995a3.413 3.413 0 0 0-1.228-1.381c-.527-.337-1.133-.505-1.82-.505-.673 0-1.272.168-1.798.505a3.64 3.64 0 0 0-1.228 1.381c-.293.585-.439 1.25-.439 1.995 0 .76.146 1.44.439 2.04a3.639 3.639 0 0 0 1.228 1.381c.526.336 1.125.504 1.798.504zm8.854 1.864V31.27h2.28v3.618l-.219-.877a4.11 4.11 0 0 1 .812-1.513 4.65 4.65 0 0 1 1.337-1.074 3.413 3.413 0 0 1 1.579-.395c.248 0 .482.022.702.066.234.044.416.095.548.153l-.592 2.456a3.16 3.16 0 0 0-.592-.175 2.228 2.228 0 0 0-.614-.088c-.395 0-.775.08-1.14.241a2.92 2.92 0 0 0-.943.636 3.059 3.059 0 0 0-.636.943 2.753 2.753 0 0 0-.241 1.162v6.36h-2.28zm21.984.22c-1.081 0-2.083-.198-3.004-.593a7.512 7.512 0 0 1-2.39-1.644 7.906 7.906 0 0 1-1.579-2.5c-.365-.965-.548-2.017-.548-3.157 0-1.14.183-2.186.548-3.136a7.593 7.593 0 0 1 1.579-2.5 7.346 7.346 0 0 1 2.39-1.666c.921-.395 1.923-.592 3.004-.592 1.082 0 2.076.197 2.982.592a7.05 7.05 0 0 1 2.39 1.666 7.35 7.35 0 0 1 1.579 2.522c.38.95.57 1.988.57 3.114 0 1.125-.19 2.17-.57 3.135a7.396 7.396 0 0 1-1.579 2.5 7.042 7.042 0 0 1-2.39 1.666c-.906.395-1.9.593-2.982.593zm0-2.303a4.892 4.892 0 0 0 3.662-1.579 5.567 5.567 0 0 0 1.053-1.776 6.205 6.205 0 0 0 .394-2.236 6.03 6.03 0 0 0-.394-2.215 5.267 5.267 0 0 0-1.053-1.776 4.657 4.657 0 0 0-1.622-1.184 4.892 4.892 0 0 0-2.04-.417c-.745 0-1.432.14-2.061.417a5.079 5.079 0 0 0-1.622 1.162 5.25 5.25 0 0 0-1.053 1.776c-.249.673-.373 1.418-.373 2.237 0 .804.124 1.55.373 2.236a5.25 5.25 0 0 0 1.053 1.776 5.079 5.079 0 0 0 1.622 1.163 5.044 5.044 0 0 0 2.061.416zm10.158 2.083V31.27h2.28v3.618l-.219-.877c.161-.555.431-1.06.811-1.513a4.667 4.667 0 0 1 1.338-1.074 3.411 3.411 0 0 1 1.578-.395c.249 0 .483.022.702.066.234.044.417.095.548.153l-.592 2.456a3.14 3.14 0 0 0-.592-.175 2.223 2.223 0 0 0-.614-.088c-.394 0-.775.08-1.14.241a2.906 2.906 0 0 0-.943.636 3.066 3.066 0 0 0-.636.943 2.753 2.753 0 0 0-.241 1.162v6.36h-2.28zm13.241.22c-1.068 0-2.025-.264-2.873-.79a5.77 5.77 0 0 1-1.995-2.149c-.483-.906-.724-1.922-.724-3.048 0-1.125.241-2.141.724-3.047a5.771 5.771 0 0 1 1.995-2.15c.848-.526 1.805-.789 2.873-.789 1.023 0 1.951.212 2.784.636.848.41 1.491.972 1.93 1.688l-1.25 1.535a4.102 4.102 0 0 0-.899-.92 4.835 4.835 0 0 0-1.162-.658 3.23 3.23 0 0 0-1.184-.241c-.702 0-1.33.175-1.886.526a3.641 3.641 0 0 0-1.294 1.403c-.321.6-.482 1.272-.482 2.017 0 .746.168 1.418.504 2.018a3.977 3.977 0 0 0 1.338 1.403c.555.35 1.169.526 1.842.526a3.34 3.34 0 0 0 1.14-.197 4 4 0 0 0 1.096-.592c.351-.263.68-.585.987-.965l1.25 1.535c-.468.658-1.14 1.199-2.017 1.623a6.043 6.043 0 0 1-2.697.636zm-1.996 5.13l-.153-1.162c.351 0 .716-.058 1.096-.175.38-.117.702-.27.965-.46.263-.176.395-.351.395-.527 0-.204-.125-.365-.373-.482a3.487 3.487 0 0 0-.833-.263 4.24 4.24 0 0 0-.768-.088l-.285-.22 1.579-2.499h1.294l-.943 1.535c.731.146 1.279.395 1.644.745.366.351.548.783.548 1.294 0 .38-.131.716-.394 1.009a2.846 2.846 0 0 1-.987.723 4.943 4.943 0 0 1-1.36.439 5.946 5.946 0 0 1-1.425.132zm13.27-5.13a4.61 4.61 0 0 1-2.61-.79c-.774-.526-1.396-1.242-1.864-2.149-.467-.906-.701-1.93-.701-3.07 0-1.154.234-2.178.701-3.07.483-.906 1.126-1.615 1.93-2.126.819-.512 1.732-.768 2.741-.768.599 0 1.147.088 1.645.263a3.89 3.89 0 0 1 1.293.746c.38.307.687.665.921 1.074.249.41.402.848.461 1.316l-.505-.175v-2.983h2.281v11.512h-2.281v-2.74l.527-.154a3.122 3.122 0 0 1-.549 1.162 4.157 4.157 0 0 1-1.03.987c-.41.292-.87.526-1.382.701a4.707 4.707 0 0 1-1.578.264zm.592-2.084c.687 0 1.293-.168 1.82-.504a3.42 3.42 0 0 0 1.228-1.381c.307-.6.46-1.28.46-2.04 0-.745-.153-1.41-.46-1.995a3.42 3.42 0 0 0-1.228-1.381c-.527-.337-1.133-.505-1.82-.505-.673 0-1.272.168-1.798.505a3.636 3.636 0 0 0-1.228 1.381c-.293.585-.439 1.25-.439 1.995 0 .76.146 1.44.439 2.04a3.636 3.636 0 0 0 1.228 1.381c.526.336 1.125.504 1.798.504zm8.81 1.864V31.27h2.281v2.456l-.417.263c.117-.38.3-.745.548-1.096.263-.35.578-.658.943-.92.38-.279.782-.498 1.206-.659a3.88 3.88 0 0 1 1.338-.24c.658 0 1.235.109 1.732.328.497.22.906.548 1.228.987.322.438.555.986.702 1.644l-.351-.087.153-.373c.161-.336.38-.65.658-.943.292-.307.621-.578.987-.811a4.965 4.965 0 0 1 1.162-.549 3.926 3.926 0 0 1 1.206-.197c.862 0 1.571.175 2.127.526.57.351.994.885 1.272 1.601.292.716.438 1.608.438 2.675v6.907h-2.28v-6.775c0-.658-.088-1.192-.263-1.601-.161-.424-.41-.738-.746-.943-.336-.205-.767-.307-1.294-.307-.409 0-.796.073-1.162.22a2.71 2.71 0 0 0-.921.57c-.263.248-.467.54-.614.877a2.57 2.57 0 0 0-.219 1.074v6.885h-2.28v-6.82c0-.599-.088-1.103-.263-1.512-.176-.424-.432-.746-.768-.965-.336-.22-.745-.329-1.228-.329a2.92 2.92 0 0 0-1.14.22 2.71 2.71 0 0 0-.921.57 2.416 2.416 0 0 0-.614.855 2.516 2.516 0 0 0-.219 1.052v6.93h-2.281zm25.609.22c-1.184 0-2.236-.249-3.157-.746a5.758 5.758 0 0 1-2.149-2.083c-.512-.877-.768-1.886-.768-3.026 0-.906.146-1.732.439-2.478a5.902 5.902 0 0 1 1.206-1.93 5.282 5.282 0 0 1 1.864-1.271 6.052 6.052 0 0 1 2.368-.46c.745 0 1.44.145 2.083.438a4.956 4.956 0 0 1 1.666 1.162 4.914 4.914 0 0 1 1.097 1.776c.263.672.387 1.41.372 2.215l-.021.965h-9.407l-.505-1.799h7.96l-.329.373v-.526a2.548 2.548 0 0 0-.482-1.294 2.984 2.984 0 0 0-2.434-1.228c-.79 0-1.455.154-1.996.46-.54.293-.95.732-1.228 1.316-.277.57-.416 1.28-.416 2.127 0 .804.168 1.506.504 2.105a3.46 3.46 0 0 0 1.425 1.36c.614.322 1.323.482 2.127.482.571 0 1.097-.095 1.579-.285.497-.19 1.031-.533 1.601-1.03l1.14 1.6a5.118 5.118 0 0 1-1.294.921 8.119 8.119 0 0 1-1.6.636 6.448 6.448 0 0 1-1.645.22zm7.476-.22V31.27h2.258v2.369l-.394.263c.146-.512.431-.98.855-1.404a4.848 4.848 0 0 1 1.513-1.052 4.15 4.15 0 0 1 1.798-.417c.877 0 1.608.176 2.193.527.584.336 1.023.855 1.315 1.556.293.702.439 1.586.439 2.654v7.016h-2.259v-6.863c0-.658-.087-1.199-.263-1.623-.175-.438-.446-.752-.811-.943-.366-.204-.819-.292-1.36-.263-.438 0-.84.074-1.206.22a2.9 2.9 0 0 0-.964.57c-.263.248-.475.54-.636.877-.146.322-.22.672-.22 1.052v6.973h-2.258zm14.466 0v-14.45h2.258v14.45h-2.258zm-2.39-9.319V31.27h7.324v2.193h-7.324zM219.496 43c-1.126 0-2.134-.255-3.026-.767a5.81 5.81 0 0 1-2.083-2.127c-.512-.906-.768-1.937-.768-3.092s.256-2.178.768-3.07a5.595 5.595 0 0 1 2.083-2.126c.892-.527 1.9-.79 3.026-.79 1.111 0 2.105.263 2.982.79a5.552 5.552 0 0 1 2.105 2.127c.512.891.767 1.914.767 3.07 0 1.154-.255 2.185-.767 3.091a5.762 5.762 0 0 1-2.105 2.127c-.877.512-1.871.768-2.982.768zm0-2.06a3.42 3.42 0 0 0 1.842-.505 3.68 3.68 0 0 0 1.272-1.403c.307-.6.453-1.272.438-2.018.015-.76-.131-1.432-.438-2.017a3.48 3.48 0 0 0-1.272-1.403c-.541-.337-1.155-.505-1.842-.505a3.42 3.42 0 0 0-1.864.527 3.48 3.48 0 0 0-1.272 1.403c-.307.585-.453 1.25-.438 1.995-.015.746.131 1.418.438 2.018a3.68 3.68 0 0 0 1.272 1.403 3.531 3.531 0 0 0 1.864.504z" fill="#fff"/></svg>