<svg width="240" height="70" fill="none" xmlns="http://www.w3.org/2000/svg"><path d="M238.828 51.713l-16.3 17.115H1.172V18.287l16.3-17.115h221.356v50.541z" stroke="#fff" stroke-width="2.343"/><path d="M42.775 41.364L36.87 26.6h2.594l3.522 8.964c.169.435.316.83.443 1.18.14.352.26.676.358.97.099.282.19.55.275.802l.253.76-.549.02a76.126 76.126 0 0 1 .696-2.256c.155-.436.338-.928.549-1.476L48.28 26.6h2.657L44.99 41.364h-2.215zm10.542 0V30.29h2.173v11.073h-2.173zm1.055-13.52c-.464 0-.823-.12-1.076-.358-.253-.24-.38-.577-.38-1.012 0-.408.127-.739.38-.992.267-.253.626-.38 1.076-.38.464 0 .822.12 1.075.36.254.238.38.576.38 1.012 0 .407-.133.738-.4.99-.254.254-.605.38-1.055.38zm8.148 13.73c-.928 0-1.765-.161-2.51-.484a4.665 4.665 0 0 1-1.856-1.435l1.476-1.265c.422.492.879.85 1.371 1.075.506.211 1.076.317 1.709.317a2.7 2.7 0 0 0 .696-.084 1.68 1.68 0 0 0 .569-.296c.169-.126.295-.274.38-.443.084-.183.126-.38.126-.59 0-.366-.133-.661-.4-.886-.141-.098-.366-.204-.675-.316a8.64 8.64 0 0 0-1.16-.38c-.816-.211-1.484-.45-2.004-.717-.52-.267-.921-.57-1.202-.907a2.718 2.718 0 0 1-.464-.865 3.608 3.608 0 0 1-.148-1.054c0-.464.099-.886.295-1.266a3.25 3.25 0 0 1 .844-1.012 3.92 3.92 0 0 1 1.265-.675 5.178 5.178 0 0 1 1.561-.232c.52 0 1.034.07 1.54.21.52.141.998.345 1.434.613a4.24 4.24 0 0 1 1.097.949l-1.245 1.37a4.71 4.71 0 0 0-.885-.696 4.043 4.043 0 0 0-.95-.485 2.719 2.719 0 0 0-.885-.168 3.52 3.52 0 0 0-.802.084c-.239.056-.443.14-.611.253a1.152 1.152 0 0 0-.359.422 1.255 1.255 0 0 0-.127.57c.014.182.057.358.127.527.084.154.197.288.337.4.155.113.387.232.696.359.31.127.704.246 1.181.358.704.183 1.28.387 1.73.612.464.211.83.457 1.097.738.28.267.478.577.59.928.113.352.169.745.169 1.181 0 .633-.183 1.203-.548 1.709-.352.492-.83.878-1.435 1.16-.604.281-1.28.422-2.024.422zm10.282 0c-.788 0-1.477-.182-2.067-.548-.576-.365-1.026-.879-1.35-1.54-.31-.66-.464-1.448-.464-2.362v-6.833h2.172v6.243c0 .647.099 1.209.296 1.687.21.464.506.823.886 1.076.393.253.864.38 1.413.38.407 0 .78-.064 1.117-.19.338-.141.626-.33.865-.57a2.49 2.49 0 0 0 .59-.865c.141-.337.212-.703.212-1.096V30.29h2.172v11.073h-2.172v-2.32l.38-.253a3.63 3.63 0 0 1-.865 1.413 4.476 4.476 0 0 1-1.413 1.012 4.385 4.385 0 0 1-1.772.359zm13.15 0a4.42 4.42 0 0 1-2.51-.759c-.746-.506-1.343-1.195-1.793-2.067-.45-.871-.675-1.856-.675-2.952 0-1.111.225-2.095.675-2.953.464-.872 1.082-1.554 1.856-2.046a4.873 4.873 0 0 1 2.636-.738c.577 0 1.104.084 1.582.253a3.75 3.75 0 0 1 1.244.717c.366.295.661.64.886 1.034.24.393.387.815.443 1.265l-.485-.169v-2.868h2.193v11.073h-2.193v-2.637l.506-.147a3 3 0 0 1-.527 1.117 4.007 4.007 0 0 1-.991.95 5.14 5.14 0 0 1-1.33.675 4.53 4.53 0 0 1-1.518.253zm.569-2.003c.66 0 1.244-.162 1.75-.485.507-.324.9-.767 1.181-1.329.296-.576.443-1.23.443-1.961 0-.717-.147-1.357-.442-1.92a3.283 3.283 0 0 0-1.182-1.328c-.506-.324-1.09-.485-1.75-.485-.647 0-1.223.161-1.73.485a3.5 3.5 0 0 0-1.18 1.328c-.282.563-.422 1.203-.422 1.92 0 .73.14 1.385.421 1.961a3.5 3.5 0 0 0 1.181 1.329 3.143 3.143 0 0 0 1.73.485zm8.559 1.793V25.756h2.172v15.608H95.08zm5.609 0V30.29h2.173v11.073h-2.173zm1.055-13.52c-.464 0-.823-.12-1.076-.358-.253-.24-.379-.577-.379-1.012 0-.408.126-.739.379-.992.268-.253.626-.38 1.076-.38.464 0 .823.12 1.076.36.253.238.379.576.379 1.012 0 .407-.133.738-.4.99-.254.254-.605.38-1.055.38zm3.993 13.52V39.55l5.716-7.635v.253h-5.716v-1.877h8.078v1.772l-5.631 7.529-.085-.105h5.842v1.877h-8.204zm14.734.21c-.914 0-1.75-.252-2.51-.759-.745-.506-1.342-1.195-1.792-2.067-.45-.871-.675-1.856-.675-2.952 0-1.111.225-2.095.675-2.953.464-.872 1.082-1.554 1.856-2.046a4.871 4.871 0 0 1 2.636-.738c.577 0 1.104.084 1.582.253.478.169.893.408 1.244.717.366.295.661.64.886 1.034.239.393.387.815.443 1.265l-.485-.169v-2.868h2.193v11.073h-2.193v-2.637l.506-.147c-.084.38-.26.752-.527 1.117a4.017 4.017 0 0 1-.991.95 5.147 5.147 0 0 1-1.329.675 4.53 4.53 0 0 1-1.519.253zm.57-2.003c.661 0 1.244-.162 1.75-.485a3.29 3.29 0 0 0 1.181-1.329c.296-.576.443-1.23.443-1.961 0-.717-.147-1.357-.443-1.92a3.283 3.283 0 0 0-1.181-1.328c-.506-.324-1.089-.485-1.75-.485-.647 0-1.224.161-1.73.485a3.499 3.499 0 0 0-1.181 1.328c-.281.563-.422 1.203-.422 1.92 0 .73.141 1.385.422 1.961a3.498 3.498 0 0 0 1.181 1.329 3.144 3.144 0 0 0 1.73.485zm8.516 1.793V30.29h2.194v3.48l-.211-.844c.155-.534.415-1.02.78-1.455.38-.436.809-.78 1.287-1.033.492-.253.998-.38 1.518-.38.24 0 .464.021.675.063.225.042.401.092.528.148l-.57 2.362a3.022 3.022 0 0 0-.569-.169 2.142 2.142 0 0 0-.591-.084c-.379 0-.745.077-1.097.232a2.77 2.77 0 0 0-.906.612 2.934 2.934 0 0 0-.612.907c-.155.337-.232.71-.232 1.117v6.117h-2.194zm14.966 0V26.6h2.278v14.764h-2.278zm1.013-6.285v-2.194h7.614v2.194h-7.614zm0-6.285V26.6h8.563v2.194h-8.563zm10.941 12.57V30.29h2.194v3.48l-.211-.844c.154-.534.415-1.02.78-1.455.38-.436.809-.78 1.287-1.033.492-.253.998-.38 1.518-.38.239 0 .464.021.675.063.225.042.401.092.527.148l-.569 2.362a3.044 3.044 0 0 0-.569-.169 2.142 2.142 0 0 0-.591-.084c-.38 0-.745.077-1.097.232-.337.14-.64.344-.907.612a2.931 2.931 0 0 0-.611.907c-.155.337-.232.71-.232 1.117v6.117h-2.194zm13.01.21c-1.082 0-2.052-.245-2.91-.738a5.59 5.59 0 0 1-2.004-2.045c-.492-.872-.738-1.863-.738-2.974 0-1.111.246-2.095.738-2.953a5.384 5.384 0 0 1 2.004-2.046c.858-.506 1.828-.76 2.91-.76 1.069 0 2.025.254 2.869.76a5.343 5.343 0 0 1 2.024 2.046c.493.858.739 1.842.739 2.953 0 1.11-.246 2.102-.739 2.974a5.543 5.543 0 0 1-2.024 2.045c-.844.492-1.8.739-2.869.739zm0-1.982a3.29 3.29 0 0 0 1.772-.485 3.54 3.54 0 0 0 1.223-1.35c.296-.576.436-1.223.422-1.94.014-.731-.126-1.378-.422-1.94a3.347 3.347 0 0 0-1.223-1.35 3.287 3.287 0 0 0-1.772-.486 3.35 3.35 0 0 0-3.016 1.856c-.295.563-.436 1.203-.421 1.92-.015.717.126 1.364.421 1.94a3.542 3.542 0 0 0 1.224 1.35 3.393 3.393 0 0 0 1.792.485zm9.37 1.772v-13.9h2.172v13.9h-2.172zm-2.299-8.964v-2.11h7.044v2.11h-7.044zm13.18 9.175a4.43 4.43 0 0 1-2.51-.76c-.745-.506-1.343-1.195-1.793-2.067-.45-.871-.675-1.856-.675-2.952 0-1.111.225-2.095.675-2.953.464-.872 1.083-1.554 1.856-2.046a4.871 4.871 0 0 1 2.636-.738c.577 0 1.104.084 1.582.253.478.169.893.408 1.245.717.365.295.66.64.885 1.034.239.393.387.815.443 1.265l-.485-.169v-2.868h2.194v11.073h-2.194v-2.637l.506-.147c-.084.38-.26.752-.527 1.117a4 4 0 0 1-.991.95 5.147 5.147 0 0 1-1.329.675 4.528 4.528 0 0 1-1.518.253zm.569-2.004c.661 0 1.244-.162 1.751-.485a3.29 3.29 0 0 0 1.181-1.329c.295-.576.443-1.23.443-1.961 0-.717-.148-1.357-.443-1.92a3.29 3.29 0 0 0-1.181-1.328c-.507-.324-1.09-.485-1.751-.485-.647 0-1.223.161-1.729.485a3.49 3.49 0 0 0-1.181 1.328c-.282.563-.422 1.203-.422 1.92 0 .73.14 1.385.422 1.961a3.49 3.49 0 0 0 1.181 1.329 3.14 3.14 0 0 0 1.729.485z" fill="#fff"/></svg>