<svg width="101" height="100" fill="none" xmlns="http://www.w3.org/2000/svg"><path fill-rule="evenodd" clip-rule="evenodd" d="M97.142 54.33c0-23.342-18.531-42.255-41.38-42.255-10.828 0-20.684 4.246-28.06 11.2a1.64 1.64 0 0 1-.22.175l3.867 3.752c6.423-6.027 14.998-9.71 24.414-9.71 19.935 0 36.086 16.498 36.086 36.838 0 20.339-16.151 36.838-36.087 36.838-19.935 0-36.086-16.499-36.086-36.838 0-6.319 1.56-12.27 4.309-17.47a1.664 1.664 0 0 1 2.274-.696 1.723 1.723 0 0 1 .683 2.313c-2.493 4.716-3.908 10.113-3.908 15.853 0 18.464 14.658 33.421 32.729 33.421 18.07 0 32.728-14.957 32.728-33.421S73.833 20.908 55.763 20.908c-8.46 0-16.168 3.276-21.98 8.657l3.855 3.74c4.832-4.343 11.178-6.98 18.125-6.98 15.157 0 27.435 12.544 27.435 28.005 0 15.46-12.278 28.005-27.435 28.005-15.158 0-27.436-12.544-27.436-28.005 0-3.864.768-7.549 2.157-10.902a1.668 1.668 0 0 1 2.199-.91 1.72 1.72 0 0 1 .895 2.237 24.955 24.955 0 0 0-1.893 9.575c0 13.585 10.785 24.589 24.078 24.589 13.292 0 24.077-11.004 24.077-24.59 0-13.585-10.785-24.588-24.077-24.588-5.992 0-11.47 2.233-15.685 5.932l10.315 10.009a9.831 9.831 0 0 1 5.37-1.59c5.538 0 10.027 4.584 10.027 10.238S61.3 64.567 55.762 64.567c-5.537 0-10.027-4.583-10.027-10.237 0-2.4.81-4.608 2.164-6.354L17.22 18.206h-5.876L.5 7.901h8.315V0L19.66 10.305v5.554l5.456 5.294c.08-.139.182-.268.304-.384 7.973-7.515 18.634-12.11 30.344-12.11 24.713 0 44.737 20.453 44.737 45.67C100.5 79.548 80.476 100 55.763 100c-24.714 0-44.738-20.453-44.738-45.67 0-8.709 2.39-16.853 6.537-23.782a1.662 1.662 0 0 1 2.307-.57 1.725 1.725 0 0 1 .56 2.347c-3.835 6.408-6.046 13.94-6.046 22.005 0 23.342 18.532 42.254 41.38 42.254 22.848 0 41.38-18.912 41.38-42.254zm-41.38 7.652c-4.126 0-7.486-3.417-7.486-7.652s3.36-7.653 7.486-7.653c4.127 0 7.487 3.418 7.487 7.653 0 4.235-3.36 7.652-7.486 7.652z" fill="url(#paint0_linear_164_1418)"/><defs><linearGradient id="paint0_linear_164_1418" x1="50.5" y1="0" x2="50.5" y2="100" gradientUnits="userSpaceOnUse"><stop stop-color="#fff"/><stop offset="1" stop-color="#fff"/></linearGradient></defs></svg>