<svg width="111" height="100" fill="none" xmlns="http://www.w3.org/2000/svg"><path fill-rule="evenodd" clip-rule="evenodd" d="M55.5 100l55-68.571L89.111 0H21.89L.5 31.429 55.5 100zM6.148 33.27l41.888 52.225L29.7 39.774c-.364-.91-.071-2.016.655-2.473.726-.456 1.61-.09 1.975.82l22.293 55.585.877 1.094.877-1.094 22.268-55.525c.365-.91 1.25-1.276 1.976-.82.726.457 1.02 1.564.655 2.473L62.964 85.495l43.53-54.272L87.752 3.684H75.16l6.576 19.326c.318.936-.03 2.018-.777 2.416-.748.4-1.612-.036-1.93-.972L71.96 3.684H39.04l-7.05 20.722c-.319.936-1.183 1.372-1.93.973-.748-.399-1.096-1.48-.777-2.417l6.56-19.278H23.247L5.62 29.586h91.13c.813 0 1.472.825 1.472 1.843 0 1.017-.66 1.842-1.472 1.842H6.148z" fill="url(#paint0_linear_164_1427)"/><defs><linearGradient id="paint0_linear_164_1427" x1="55.5" y1="0" x2="55.5" y2="100" gradientUnits="userSpaceOnUse"><stop stop-color="#fff"/><stop offset="1" stop-color="#fff"/></linearGradient></defs></svg>