<svg width="101" height="100" fill="none" xmlns="http://www.w3.org/2000/svg"><path fill-rule="evenodd" clip-rule="evenodd" d="M4.672 50.455c9.4-15.983 26.457-26.661 45.936-26.661 15.305 0 29.11 6.589 38.886 17.165.685.74 1.824.77 2.545.066a1.89 1.89 0 0 0 .064-2.618C81.676 27.127 66.94 20.09 50.608 20.09c-21.191 0-39.691 11.844-49.586 29.438l-.522.927.522.927C10.917 68.976 29.417 80.82 50.608 80.82c21.192 0 39.692-11.844 49.587-29.438.498-.885.204-2.018-.657-2.53a1.774 1.774 0 0 0-2.46.676C87.8 66.024 70.462 77.117 50.608 77.117c-19.48 0-36.536-10.678-45.936-26.662z" fill="url(#paint0_linear_164_1423)"/><path fill-rule="evenodd" clip-rule="evenodd" d="M50.6 34.392c-4.668 0-8.85 2.128-11.682 5.5a1.767 1.767 0 0 1-2.54.19 1.889 1.889 0 0 1-.185-2.612c3.488-4.15 8.65-6.782 14.407-6.782 10.512 0 19.034 8.765 19.034 19.577 0 10.812-8.522 19.576-19.034 19.576-10.513 0-19.034-8.764-19.034-19.576 0-1.023.806-1.852 1.8-1.852.995 0 1.8.829 1.8 1.852 0 8.766 6.91 15.873 15.434 15.873 8.523 0 15.433-7.107 15.433-15.873 0-8.767-6.91-15.873-15.433-15.873z" fill="url(#paint1_linear_164_1423)"/><path fill-rule="evenodd" clip-rule="evenodd" d="M50.6 0c.994 0 1.8.83 1.8 1.852v15.361c0 1.023-.806 1.852-1.8 1.852-.995 0-1.8-.829-1.8-1.852V1.852C48.8.829 49.604 0 50.6 0zM24.282 4.002c.91-.411 1.973.014 2.373.95l6.143 14.383c.4.936-.014 2.029-.924 2.44-.91.411-1.973-.014-2.373-.95L23.358 6.441c-.4-.936.014-2.029.924-2.44zm52.635 0c.91.411 1.325 1.504.925 2.44L71.739 20.73c-.4.936-1.462 1.362-2.372.95-.91-.41-1.325-1.503-.925-2.44l6.103-14.286c.4-.937 1.462-1.362 2.372-.951zM1.22 15.469a1.765 1.765 0 0 1 2.546-.017l11.36 11.537a1.89 1.89 0 0 1 .016 2.619 1.765 1.765 0 0 1-2.546.017L1.235 18.088a1.89 1.89 0 0 1-.016-2.619zm98.762 0a1.89 1.89 0 0 1-.016 2.619L88.743 29.484a1.765 1.765 0 0 1-2.546-.017 1.89 1.89 0 0 1 .016-2.619l11.221-11.396a1.766 1.766 0 0 1 2.547.017z" fill="url(#paint2_linear_164_1423)"/><path fill-rule="evenodd" clip-rule="evenodd" d="M50.857 100c-.994 0-1.8-.83-1.8-1.852V83.094c0-1.023.806-1.852 1.8-1.852s1.8.83 1.8 1.852v15.054c0 1.023-.806 1.852-1.8 1.852zm26.19-3.93c-.909.417-1.973-.002-2.378-.936l-6.11-14.095c-.405-.934.003-2.029.911-2.445.908-.417 1.973.003 2.378.937l6.11 14.094c.405.934-.003 2.03-.911 2.446zm-52.38 0c-.908-.416-1.316-1.51-.91-2.445l6.069-14c.404-.935 1.47-1.354 2.377-.938.908.417 1.316 1.512.911 2.446l-6.069 14c-.405.935-1.47 1.354-2.378.938zM99.99 84.82a1.765 1.765 0 0 1-2.546.036l-11.3-11.306a1.89 1.89 0 0 1-.035-2.62 1.765 1.765 0 0 1 2.547-.035L99.955 82.2a1.89 1.89 0 0 1 .035 2.619zm-98.266 0a1.89 1.89 0 0 1 .035-2.62l11.162-11.167a1.765 1.765 0 0 1 2.546.036 1.89 1.89 0 0 1-.035 2.618L4.27 84.856a1.766 1.766 0 0 1-2.546-.036z" fill="url(#paint3_linear_164_1423)"/><defs><linearGradient id="paint0_linear_164_1423" x1="50.5" y1="0" x2="50.5" y2="100" gradientUnits="userSpaceOnUse"><stop stop-color="#fff"/><stop offset="1" stop-color="#fff"/></linearGradient><linearGradient id="paint1_linear_164_1423" x1="50.5" y1="0" x2="50.5" y2="100" gradientUnits="userSpaceOnUse"><stop stop-color="#fff"/><stop offset="1" stop-color="#fff"/></linearGradient><linearGradient id="paint2_linear_164_1423" x1="50.5" y1="0" x2="50.5" y2="100" gradientUnits="userSpaceOnUse"><stop stop-color="#fff"/><stop offset="1" stop-color="#fff"/></linearGradient><linearGradient id="paint3_linear_164_1423" x1="50.5" y1="0" x2="50.5" y2="100" gradientUnits="userSpaceOnUse"><stop stop-color="#fff"/><stop offset="1" stop-color="#fff"/></linearGradient></defs></svg>