<svg width="32" height="32" fill="none" xmlns="http://www.w3.org/2000/svg"><g clip-path="url(#clip0)" fill="#6A6D8F"><path d="M23.162 10.582a2.847 2.847 0 0 0-.687-1.057 2.845 2.845 0 0 0-1.056-.687c-.324-.126-.81-.275-1.706-.316-.97-.044-1.26-.054-3.713-.054-2.453 0-2.744.01-3.713.053-.895.041-1.382.191-1.706.317a2.84 2.84 0 0 0-1.056.687c-.305.297-.54.657-.687 1.056-.126.324-.276.81-.317 1.707-.044.968-.053 1.259-.053 3.712 0 2.453.01 2.744.053 3.713.041.896.19 1.382.317 1.706.147.399.382.76.687 1.056.296.305.657.54 1.056.687.324.126.81.276 1.706.317.97.044 1.26.053 3.713.053 2.453 0 2.744-.01 3.712-.053.896-.041 1.383-.19 1.707-.317a3.043 3.043 0 0 0 1.743-1.743c.126-.324.276-.81.317-1.706.044-.97.053-1.26.053-3.713 0-2.453-.01-2.744-.053-3.712-.041-.896-.19-1.383-.317-1.707zM16 20.718a4.718 4.718 0 1 1 0-9.436 4.718 4.718 0 0 1 0 9.436zm4.904-8.52a1.102 1.102 0 1 1 0-2.205 1.102 1.102 0 0 1 0 2.205z"/><path d="M19.063 16a3.062 3.062 0 1 1-6.125 0 3.062 3.062 0 0 1 6.124 0z"/><path d="M29.692 0H2.308A2.308 2.308 0 0 0 0 2.308v27.384A2.308 2.308 0 0 0 2.308 32h27.384A2.308 2.308 0 0 0 32 29.692V2.308A2.308 2.308 0 0 0 29.692 0zm-4.56 19.788c-.044.978-.2 1.646-.427 2.23a4.698 4.698 0 0 1-2.687 2.687c-.584.227-1.252.382-2.23.427-.98.045-1.293.055-3.788.055s-2.808-.01-3.788-.055c-.978-.045-1.646-.2-2.23-.427a4.501 4.501 0 0 1-1.627-1.06 4.504 4.504 0 0 1-1.06-1.627c-.227-.584-.382-1.252-.427-2.23-.045-.98-.056-1.293-.056-3.788s.011-2.808.056-3.788c.044-.978.2-1.646.427-2.23a4.5 4.5 0 0 1 1.06-1.627 4.5 4.5 0 0 1 1.627-1.06c.584-.227 1.252-.382 2.23-.427.98-.045 1.293-.056 3.788-.056s2.808.011 3.788.056c.978.045 1.646.2 2.23.427.613.23 1.168.592 1.627 1.06.468.459.83 1.014 1.06 1.627.227.584.383 1.252.427 2.23.045.98.055 1.293.055 3.788s-.01 2.808-.055 3.788z"/></g><defs><clipPath id="clip0"><path fill="#fff" d="M0 0h32v32H0z"/></clipPath></defs></svg>