<svg width="34" height="40" fill="none" xmlns="http://www.w3.org/2000/svg"><path fill-rule="evenodd" clip-rule="evenodd" d="M26.171 3.55a4.512 4.512 0 0 0-.494-.676 2.761 2.761 0 0 0-1.233-.814 5.908 5.908 0 0 0-.386-.11L24 1.935a2.026 2.026 0 0 1-.263-.082c-.11-.046-.268-.13-.497-.394-1.881-2.17-4.705-1.729-6.24.076C15.466-.27 12.641-.71 10.76 1.46c-.229.264-.386.348-.497.394a2.026 2.026 0 0 1-.321.097 5.928 5.928 0 0 0-.386.11 2.762 2.762 0 0 0-1.233.814 4.473 4.473 0 0 0-.494.677c-.702-.252-1.52-.264-2.287-.053-1.397.384-2.777 1.503-3.71 3.505a10.293 10.293 0 0 0-.97 4.865c.067 1.382.058 2.569-.357 3.55-1.288 3.04-.031 6.595 2.843 8.044l.257.13c-1.454 2.354-1.172 5.463.72 7.494l1.396 1.498c.143.153.187.38.113.579-.617 1.655.378 3.483 2.06 3.783l.807.145c.175.031.342.103.487.21l2.633 1.936c.188.138.387.26.595.361 1.653.814 3.464.33 4.584-.893 1.12 1.223 2.93 1.707 4.584.893.208-.102.407-.223.595-.36l2.633-1.937c.145-.107.312-.179.487-.21l.808-.145c1.681-.3 2.676-2.128 2.06-3.783a.564.564 0 0 1 .112-.58l1.395-1.497c1.893-2.031 2.175-5.14.72-7.495l.258-.13c2.874-1.448 4.13-5.003 2.843-8.043-.415-.981-.424-2.168-.357-3.55a10.299 10.299 0 0 0-.97-4.865c-.933-2.002-2.313-3.12-3.71-3.505-.767-.21-1.585-.2-2.287.053zm-8.084.995c0-2.118 2.333-2.963 3.54-1.572.44.51.872.802 1.31.982.204.084.39.136.532.173l.103.027c.093.024.15.038.214.06a.611.611 0 0 1 .304.204c.104.115.244.313.42.655a8.562 8.562 0 0 0-.681 1.628 10.987 10.987 0 0 0-.287 1.147l-.004.022-.001.007v.005c-.105.614.29 1.2.88 1.31.591.108 1.155-.302 1.26-.917v-.007l.009-.043c.008-.041.02-.104.039-.184a8.64 8.64 0 0 1 .172-.647c.167-.537.408-1.121.718-1.538.073-.098.51-.387 1.288-.173.7.192 1.612.808 2.309 2.305a7.955 7.955 0 0 1 .756 3.765c-.066 1.355-.109 3.047.538 4.575.816 1.927.02 4.18-1.801 5.098l-1.343.676a2.12 2.12 0 0 1-2.198-.638l-.185-.208a1.057 1.057 0 0 0-1.535-.062 1.163 1.163 0 0 0-.06 1.597l.184.208a4.255 4.255 0 0 0 3.73 1.418l.148.213c1.045 1.495.904 3.555-.332 4.882l-1.395 1.497a2.892 2.892 0 0 0-.579 2.97c.12.323-.074.68-.402.738l-.807.144a3.3 3.3 0 0 0-1.374.593l-2.633 1.936a1.787 1.787 0 0 1-.27.163c-1.193.588-2.567-.318-2.567-1.692V4.545zm-2.174 31.317V4.545c0-2.118-2.333-2.963-3.54-1.572-.44.51-.872.802-1.31.982a4.07 4.07 0 0 1-.532.173l-.103.027c-.093.024-.15.038-.214.06a.612.612 0 0 0-.304.204c-.15.166-.376.504-.673 1.203a1.092 1.092 0 0 1-.862.664 1.067 1.067 0 0 1-.99-.43c-.073-.097-.51-.386-1.288-.172-.7.192-1.612.808-2.309 2.305a7.954 7.954 0 0 0-.756 3.765c.066 1.355.109 3.047-.538 4.575-.816 1.927-.02 4.18 1.801 5.098l1.418.714c.29.146.502.418.58.743a1.17 1.17 0 0 1-.175.94l-.564.807c-1.045 1.495-.904 3.555.332 4.882l1.395 1.497c.734.788.96 1.948.579 2.97-.12.323.074.68.402.738l.807.144a3.3 3.3 0 0 1 1.374.593l2.633 1.936c.085.062.175.117.27.163 1.193.588 2.567-.318 2.567-1.692z" fill="url(#paint0_linear)"/><path fill-rule="evenodd" clip-rule="evenodd" d="M19.936 9.626a.53.53 0 0 1 .76.116l.613.858a4.081 4.081 0 0 1-.18 4.95l-.458.552a.529.529 0 0 1-.767.057.581.581 0 0 1-.055-.797l.46-.551a2.915 2.915 0 0 0 .127-3.537l-.612-.857a.58.58 0 0 1 .112-.791z" fill="url(#paint1_linear)"/><path fill-rule="evenodd" clip-rule="evenodd" d="M21.75 27.414a.529.529 0 0 1-.767.044l-.34-.32c-1.771-1.652-1.665-4.571.22-6.08l.152-.121a.53.53 0 0 1 .762.103.58.58 0 0 1-.1.793l-.151.121c-1.347 1.078-1.423 3.163-.158 4.343l.341.32a.581.581 0 0 1 .042.797z" fill="url(#paint2_linear)"/><path fill-rule="evenodd" clip-rule="evenodd" d="M24.344 27.607a.549.549 0 0 1 .601.497l.19 1.714c.196 1.788-.792 3.489-2.404 4.14l-1.188.479a.537.537 0 0 1-.703-.323.572.572 0 0 1 .31-.731l1.188-.48c1.152-.464 1.857-1.68 1.717-2.956l-.19-1.715a.56.56 0 0 1 .479-.625z" fill="url(#paint3_linear)"/><path fill-rule="evenodd" clip-rule="evenodd" d="M23.146 11.93a.529.529 0 0 1 .769.023l1.283 1.414c.688.758.888 1.864.512 2.83a1.571 1.571 0 0 0 .517 1.83l.866.636a.58.58 0 0 1 .13.787.53.53 0 0 1-.757.136l-.866-.636c-.972-.714-1.343-2.03-.897-3.177a1.581 1.581 0 0 0-.295-1.63l-1.283-1.413a.582.582 0 0 1 .021-.8z" fill="url(#paint4_linear)"/><path fill-rule="evenodd" clip-rule="evenodd" d="M12.654 12.341c.6 0 1.086-.506 1.086-1.13 0-.625-.486-1.13-1.086-1.13-.6 0-1.087.505-1.087 1.13 0 .624.486 1.13 1.087 1.13zm0 1.13c1.2 0 2.173-1.012 2.173-2.26 0-1.249-.973-2.261-2.173-2.261-1.2 0-2.174 1.012-2.174 2.26 0 1.25.973 2.262 2.174 2.262z" fill="url(#paint5_linear)"/><path fill-rule="evenodd" clip-rule="evenodd" d="M7.22 16.863c.6 0 1.087-.506 1.087-1.13 0-.625-.487-1.131-1.087-1.131s-1.086.506-1.086 1.13c0 .625.486 1.13 1.086 1.13zm0 1.13c1.2 0 2.174-1.012 2.174-2.26 0-1.25-.973-2.261-2.174-2.261-1.2 0-2.173 1.012-2.173 2.26 0 1.25.973 2.261 2.173 2.261z" fill="url(#paint6_linear)"/><path fill-rule="evenodd" clip-rule="evenodd" d="M12.654 32.69c.6 0 1.086-.507 1.086-1.131s-.486-1.13-1.086-1.13c-.6 0-1.087.506-1.087 1.13 0 .624.486 1.13 1.087 1.13zm0 1.13c1.2 0 2.173-1.012 2.173-2.261s-.973-2.261-2.173-2.261c-1.2 0-2.174 1.012-2.174 2.26 0 1.25.973 2.262 2.174 2.262z" fill="url(#paint7_linear)"/><path fill-rule="evenodd" clip-rule="evenodd" d="M12.654 25.907c.6 0 1.086-.506 1.086-1.13 0-.625-.486-1.13-1.086-1.13-.6 0-1.087.506-1.087 1.13 0 .624.486 1.13 1.087 1.13zm0 1.13c1.2 0 2.173-1.011 2.173-2.26 0-1.249-.973-2.261-2.173-2.261-1.2 0-2.174 1.012-2.174 2.26 0 1.25.973 2.262 2.174 2.262z" fill="url(#paint8_linear)"/><path fill-rule="evenodd" clip-rule="evenodd" d="M12.11 19.124v-6.217h1.087V23.08H12.11v-2.826H6.677v-2.826h1.087v1.695h4.346zm0 10.74v-3.392h1.087v3.392H12.11z" fill="url(#paint9_linear)"/><defs><linearGradient id="paint0_linear" x1="17" y1="0" x2="17" y2="40" gradientUnits="userSpaceOnUse"><stop stop-color="#F4F4F7"/><stop offset="1" stop-color="#D2D2DD"/></linearGradient><linearGradient id="paint1_linear" x1="17" y1="0" x2="17" y2="40" gradientUnits="userSpaceOnUse"><stop stop-color="#F4F4F7"/><stop offset="1" stop-color="#D2D2DD"/></linearGradient><linearGradient id="paint2_linear" x1="17" y1="0" x2="17" y2="40" gradientUnits="userSpaceOnUse"><stop stop-color="#F4F4F7"/><stop offset="1" stop-color="#D2D2DD"/></linearGradient><linearGradient id="paint3_linear" x1="17" y1="0" x2="17" y2="40" gradientUnits="userSpaceOnUse"><stop stop-color="#F4F4F7"/><stop offset="1" stop-color="#D2D2DD"/></linearGradient><linearGradient id="paint4_linear" x1="17" y1="0" x2="17" y2="40" gradientUnits="userSpaceOnUse"><stop stop-color="#F4F4F7"/><stop offset="1" stop-color="#D2D2DD"/></linearGradient><linearGradient id="paint5_linear" x1="17" y1="0" x2="17" y2="40" gradientUnits="userSpaceOnUse"><stop stop-color="#F4F4F7"/><stop offset="1" stop-color="#D2D2DD"/></linearGradient><linearGradient id="paint6_linear" x1="17" y1="0" x2="17" y2="40" gradientUnits="userSpaceOnUse"><stop stop-color="#F4F4F7"/><stop offset="1" stop-color="#D2D2DD"/></linearGradient><linearGradient id="paint7_linear" x1="17" y1="0" x2="17" y2="40" gradientUnits="userSpaceOnUse"><stop stop-color="#F4F4F7"/><stop offset="1" stop-color="#D2D2DD"/></linearGradient><linearGradient id="paint8_linear" x1="17" y1="0" x2="17" y2="40" gradientUnits="userSpaceOnUse"><stop stop-color="#F4F4F7"/><stop offset="1" stop-color="#D2D2DD"/></linearGradient><linearGradient id="paint9_linear" x1="17" y1="0" x2="17" y2="40" gradientUnits="userSpaceOnUse"><stop stop-color="#F4F4F7"/><stop offset="1" stop-color="#D2D2DD"/></linearGradient></defs></svg>