<svg width="46" height="40" fill="none" xmlns="http://www.w3.org/2000/svg"><path d="M30.5 24.837c0 1.601-.555 2.936-1.667 4.003-1.11 1.068-2.604 1.72-4.481 1.954l.074 3.492h-2.593l.075-3.396c-2.766-.149-4.902-.544-6.408-1.185l.963-2.69c2.321.811 4.284 1.217 5.889 1.217 1.605 0 2.802-.299 3.593-.897.79-.598 1.185-1.356 1.185-2.274 0-.918-.445-1.698-1.334-2.338-.864-.662-1.95-1.27-3.259-1.826l-2.518-1.09c-.37-.191-.852-.48-1.445-.864-.592-.406-1.037-.79-1.333-1.153-.74-.961-1.111-2.125-1.111-3.491 0-1.367.543-2.51 1.63-3.428 1.11-.94 2.543-1.505 4.296-1.697l-.074-3.46h2.592L24.5 9.142c1.58.085 3.222.395 4.926.928L28.5 12.6c-1.778-.554-3.395-.832-4.852-.832-1.456 0-2.518.246-3.185.737-.667.491-1 1.142-1 1.954 0 .79.395 1.463 1.185 2.018.79.555 1.815 1.12 3.074 1.697 1.26.556 2.185 1.004 2.778 1.346.593.32 1.235.758 1.926 1.313 1.383 1.068 2.074 2.402 2.074 4.004z" fill="url(#paint0_linear)"/><path fill-rule="evenodd" clip-rule="evenodd" d="M23.317 2.5C14.733 2.5 7.57 8.511 5.925 16.499a1.267 1.267 0 0 1-1.494.976 1.25 1.25 0 0 1-.99-1.474C5.32 6.871 13.503 0 23.317 0a20.36 20.36 0 0 1 14.897 6.428L43.69 3.87a1.282 1.282 0 0 1 1.348.165c.38.308.544.804.423 1.274l-2.585 10a1.263 1.263 0 0 1-1.216.94 1.265 1.265 0 0 1-1.234-.916 17.258 17.258 0 0 0-1.736-4.082 17.552 17.552 0 0 0-1.767-2.487A17.807 17.807 0 0 0 23.317 2.5z" fill="url(#paint1_linear)"/><path fill-rule="evenodd" clip-rule="evenodd" d="M23.015 37.5c8.745 0 16.02-6.026 17.688-14.002a1.267 1.267 0 0 1 1.498-.972c.685.14 1.126.8.985 1.477C41.275 33.142 32.96 40 23.016 40c-5.978 0-11.366-2.477-15.127-6.436l-5.586 2.569a1.283 1.283 0 0 1-1.346-.172 1.24 1.24 0 0 1-.416-1.274l2.625-10a1.264 1.264 0 0 1 1.215-.937 1.265 1.265 0 0 1 1.233.913 17.106 17.106 0 0 0 1.762 4.079c.525.88 1.126 1.711 1.795 2.487 3.31 3.832 8.28 6.271 13.844 6.271z" fill="url(#paint2_linear)"/><defs><linearGradient id="paint0_linear" x1="23" y1="0" x2="23" y2="40" gradientUnits="userSpaceOnUse"><stop stop-color="#F4F4F7"/><stop offset="1" stop-color="#D2D2DD"/></linearGradient><linearGradient id="paint1_linear" x1="23" y1="0" x2="23" y2="40" gradientUnits="userSpaceOnUse"><stop stop-color="#F4F4F7"/><stop offset="1" stop-color="#D2D2DD"/></linearGradient><linearGradient id="paint2_linear" x1="23" y1="0" x2="23" y2="40" gradientUnits="userSpaceOnUse"><stop stop-color="#F4F4F7"/><stop offset="1" stop-color="#D2D2DD"/></linearGradient></defs></svg>