<svg width="40" height="40" fill="none" xmlns="http://www.w3.org/2000/svg"><path fill-rule="evenodd" clip-rule="evenodd" d="M6.186 0C5.05 0 4.033.269 3.166.809c-.86.536-1.495 1.291-1.957 2.155C.305 4.654 0 6.884 0 9.22v9.158c0 1.567 1.322 2.838 2.955 2.838h7.209V37.16c0 1.608 1.531 2.839 3.12 2.839h23.761C38.678 40 40 38.728 40 37.161V2.84C40 1.283 38.7 0 37.056 0H6.186zm0 2.557c-.685 0-1.185.157-1.57.397-.392.244-.742.623-1.039 1.178-.613 1.147-.915 2.888-.915 5.089v9.158c0 .156.132.281.293.281h7.373V9.22c0-2.13-.434-3.854-1.172-5-.7-1.088-1.665-1.663-2.97-1.663zm5.058.065c.06.08.119.164.176.253 1.105 1.715 1.312 3.99 1.312 6.346v27.936s.014.06.144.147c.139.092.305.14.407.14h23.762a.288.288 0 0 0 .293-.283V2.84c0-.079-.029-.122-.062-.15a.337.337 0 0 0-.22-.067H11.244z" fill="url(#paint0_linear)"/><path d="M29.48 23.73c0 .962-.33 1.762-.99 2.403-.66.64-1.548 1.031-2.663 1.172l.044 2.095h-1.54l.043-2.037c-1.643-.09-2.912-.327-3.808-.711l.573-1.614c1.379.486 2.546.73 3.5.73.953 0 1.665-.18 2.134-.538.47-.359.705-.814.705-1.365 0-.55-.264-1.018-.793-1.403-.513-.397-1.159-.762-1.937-1.095l-1.496-.654c-.22-.115-.506-.288-.859-.518-.352-.244-.616-.475-.792-.692-.44-.577-.66-1.275-.66-2.095 0-.82.322-1.506.968-2.057.66-.563 1.511-.903 2.553-1.018l-.044-2.076h1.541l-.044 2.057c.94.05 1.915.237 2.927.557l-.55 1.518c-1.056-.333-2.018-.5-2.883-.5-.866 0-1.497.148-1.893.443a1.39 1.39 0 0 0-.594 1.172c0 .474.234.877.704 1.21.47.334 1.078.673 1.827 1.02.748.332 1.298.601 1.65.806a7.79 7.79 0 0 1 1.145.788c.822.641 1.233 1.442 1.233 2.403z" fill="url(#paint1_linear)"/><defs><linearGradient id="paint0_linear" x1="20" y1="0" x2="20" y2="40" gradientUnits="userSpaceOnUse"><stop stop-color="#F4F4F7"/><stop offset="1" stop-color="#D2D2DD"/></linearGradient><linearGradient id="paint1_linear" x1="20" y1="0" x2="20" y2="40" gradientUnits="userSpaceOnUse"><stop stop-color="#F4F4F7"/><stop offset="1" stop-color="#D2D2DD"/></linearGradient></defs></svg>