<svg width="34" height="40" fill="none" xmlns="http://www.w3.org/2000/svg"><path fill-rule="evenodd" clip-rule="evenodd" d="M21.5 38.205c6.976-3.536 11.506-10.432 11.896-18.109L34 8.194 17.633 0 0 8.197l1.684 13.267c.88 6.93 5.131 13.018 11.411 16.34l3.832 2.027c.418.221.921.225 1.343.012l3.23-1.638zM3.103 9.863l1.429 11.255c.765 6.03 4.464 11.327 9.928 14.217l3.164 1.673 2.556-1.295c6.069-3.077 10.01-9.077 10.35-15.756l.512-10.09L17.586 3.13 3.103 9.863z" fill="url(#paint0_linear)"/><path d="M27.395 13.313a.875.875 0 0 0-1.218 0L15.316 23.94l-5.126-5.015a.875.875 0 0 0-1.218 0 .83.83 0 0 0 0 1.191l5.735 5.611c.336.33.881.33 1.218 0l11.47-11.221a.83.83 0 0 0 0-1.192z" fill="url(#paint1_linear)"/><defs><linearGradient id="paint0_linear" x1="17" y1="0" x2="17" y2="40" gradientUnits="userSpaceOnUse"><stop stop-color="#F4F4F7"/><stop offset="1" stop-color="#D2D2DD"/></linearGradient><linearGradient id="paint1_linear" x1="17" y1="0" x2="17" y2="40" gradientUnits="userSpaceOnUse"><stop stop-color="#F4F4F7"/><stop offset="1" stop-color="#D2D2DD"/></linearGradient></defs></svg>