<svg width="50" height="50" fill="none" xmlns="http://www.w3.org/2000/svg"><path d="M42.5 7.275C37.825 2.575 31.6 0 24.975 0 11.325 0 .2 11.125.2 24.775.2 29.15 1.35 33.4 3.5 37.15L0 50l13.125-3.45a24.781 24.781 0 0 0 11.85 3.025c13.65 0 24.775-11.125 24.775-24.775 0-6.625-2.575-12.85-7.25-17.525zm-17.525 38.1c-3.7 0-7.325-1-10.5-2.875l-.75-.45-7.8 2.05L8 36.5l-.5-.775a20.66 20.66 0 0 1-3.15-10.95c0-11.35 9.25-20.6 20.6-20.6 5.5 0 10.675 2.15 14.55 6.05 3.9 3.9 6.025 9.075 6.025 14.575.05 11.35-9.2 20.575-20.55 20.575zm11.3-15.4c-.625-.3-3.675-1.8-4.225-2.025-.575-.2-.975-.3-1.4.3-.425.625-1.6 2.025-1.95 2.425-.35.425-.725.475-1.35.15-.625-.3-2.625-.975-4.975-3.075-1.85-1.65-3.075-3.675-3.45-4.3-.35-.625-.05-.95.275-1.275.275-.275.625-.725.925-1.075.3-.35.425-.625.625-1.025.2-.425.1-.775-.05-1.075-.15-.3-1.4-3.35-1.9-4.6-.5-1.2-1.025-1.05-1.4-1.075h-1.2c-.425 0-1.075.15-1.65.775-.55.625-2.15 2.125-2.15 5.175s2.225 6 2.525 6.4c.3.425 4.375 6.675 10.575 9.35a30.258 30.258 0 0 0 3.525 1.3c1.475.475 2.825.4 3.9.25 1.2-.175 3.675-1.5 4.175-2.95.525-1.45.525-2.675.35-2.95-.175-.275-.55-.4-1.175-.7z" fill="#fff"/></svg>